:version 1.10
:name ASF
:units
  mass 1
  length 1
  angle deg
:documentation
  ASF file generated by Kaydara
:root
  axis xyz
  order  tx ty tz rx ry rz
  position 0 0 0
  orientation 0 0 0
:bonedata
  begin
    id 1
    name LeftUpLegDummy
    direction 1 -2.30186e-007 -8.31532e-007
    length 2.93387
    axis 0 0 0 xyz
  end
  begin
    id 2
    name LeftUpLeg
    direction -1.82929e-007 -1 -1.48925e-009
    length 17.3336
    axis -3.48766 0.00143442 -0.000521554 xyz
    dof rx ry rz
  end
  begin
    id 3
    name LeftLeg
    direction -1.82929e-007 -1 -5.23717e-011
    length 14.9995
    axis 3.68178 -0.00654042 -0.000282425 xyz
    dof rx ry rz
  end
  begin
    id 4
    name LeftFoot
    direction 8.31532e-007 -4.54534e-011 1
    length 6.74421
    axis 1.87234e-006 4.66016e-005 -5.96866e-006 xyz
    dof rx ry rz
  end
  begin
    id 5
    name LeftToes
    direction 0.00818058 -0.00485161 0.999955
    length 3.85048
    axis 1.06247e-005 4.65869e-005 -5.96999e-006 xyz
    dof rx ry rz
  end
  begin
    id 6
    name SpineDummy
    direction -5.8607e-008 0.943407 -0.331637
    length 5.93572
    axis 0 0 0 xyz
  end
  begin
    id 7
    name Spine
    direction -1.04988e-007 0.999988 0.00495137
    length 10.1015
    axis -0.001389 0.000121417 6.61666e-006 xyz
    dof rx ry rz
  end
  begin
    id 8
    name Spine1
    direction 0 0 0
    length 0
    axis -0.001389 0.00012144 6.56766e-006 xyz
    dof rx ry rz
  end
  begin
    id 9
    name RightShoulderDummy
    direction -0.98348 0.17941 -0.0240696
    length 3.59882
    axis -0.001389 0.00012144 6.56766e-006 xyz
  end
  begin
    id 10
    name RightShoulder
    direction -0.978693 0.204882 0.0135597
    length 2.70001
    axis 0.215806 0.000203631 -0.00679732 xyz
    dof rx ry rz
  end
  begin
    id 11
    name RightArm
    direction -1 3.85509e-006 8.31394e-007
    length 10.2459
    axis -23.2009 -0.134239 -0.964098 xyz
    dof rx ry rz
  end
  begin
    id 12
    name RightForeArm
    direction -1 3.85569e-006 8.3129e-007
    length 8.16799
    axis -9.92322 0.0658061 0.17887 xyz
    dof rx ry rz
  end
  begin
    id 13
    name RightHand
    direction -0.992843 -0.0414604 0.112003
    length 5.28593
    axis -0.00960638 0.00330669 -0.185225 xyz
    dof rx ry rz
  end
  begin
    id 14
    name LeftShoulder1Dummy
    direction 0.983523 0.179172 -0.0240748
    length 3.59866
    axis -0.001389 0.00012144 6.56766e-006 xyz
  end
  begin
    id 15
    name LeftShoulder1
    direction 0.978627 0.205195 0.0135605
    length 2.70019
    axis -0.001389 0.00012144 6.57583e-006 xyz
    dof rx ry rz
  end
  begin
    id 16
    name LeftArm
    direction 1 3.51895e-006 -8.60188e-007
    length 10.2459
    axis -23.1894 0.134785 0.967513 xyz
    dof rx ry rz
  end
  begin
    id 17
    name LeftForeArm
    direction 1 3.51921e-006 -7.32029e-007
    length 8.16799
    axis -9.91835 -0.0656957 -0.177789 xyz
    dof rx ry rz
  end
  begin
    id 18
    name LeftHand
    direction 0.992938 -0.0411636 0.11126
    length 5.32135
    axis -0.00960237 -0.00340661 0.185177 xyz
    dof rx ry rz
  end
  begin
    id 19
    name HEadDummy
    direction 1.01974e-006 0.999861 -0.016675
    length 2.99946
    axis -0.001389 0.00012144 6.56766e-006 xyz
  end
  begin
    id 20
    name HEad
    direction -0.0222689 0.980941 0.193023
    length 5.12695
    axis -0.001389 0.00012144 6.56766e-006 xyz
    dof rx ry rz
  end
  begin
    id 21
    name RightUpLegDummy
    direction -1 2.30186e-007 8.31532e-007
    length 2.93387
    axis 0 0 0 xyz
  end
  begin
    id 22
    name RightUpLeg
    direction -1.82966e-007 -1 1.56832e-007
    length 17.3336
    axis -3.4909 -0.000906625 0.00028951 xyz
    dof rx ry rz
  end
  begin
    id 23
    name RightLeg
    direction -1.82786e-007 -1 -1.80317e-007
    length 14.9995
    axis 3.68513 0.0193739 -0.131021 xyz
    dof rx ry rz
  end
  begin
    id 24
    name RightFoot
    direction 8.31721e-007 -4.63324e-011 1
    length 6.74421
    axis 4.81691e-005 -0.120479 -0.188785 xyz
    dof rx ry rz
  end
  begin
    id 25
    name RightToes
    direction 0.00124746 -0.014064 0.9999
    length 3.85082
    axis 0.000481921 0.542163 -0.142575 xyz
    dof rx ry rz
  end
:hierarchy
  begin
    root LeftUpLegDummy SpineDummy RightUpLegDummy
    LeftUpLegDummy LeftUpLeg
    LeftUpLeg LeftLeg
    LeftLeg LeftFoot
    LeftFoot LeftToes
    SpineDummy Spine
    Spine Spine1
    Spine1 RightShoulderDummy LeftShoulder1Dummy HEadDummy
    RightShoulderDummy RightShoulder
    RightShoulder RightArm
    RightArm RightForeArm
    RightForeArm RightHand
    LeftShoulder1Dummy LeftShoulder1
    LeftShoulder1 LeftArm
    LeftArm LeftForeArm
    LeftForeArm LeftHand
    HEadDummy HEad
    RightUpLegDummy RightUpLeg
    RightUpLeg RightLeg
    RightLeg RightFoot
    RightFoot RightToes
  end

:SAMPLES-PER-SECOND 30
:FULLY-SPECIFIED
:DEGREES
72
root  -4.62313 34.2058 3.49984 2.99036 27.3399 1.45428
LeftUpLeg  -8.90782 11.9226 5.02084
LeftLeg  47.1345 10.8337 10.0904
LeftFoot  0.436123 -0.000596021 0.156596
LeftToes  -13.1038 1.92152e-006 4.03786e-008
Spine  1.69326 2.08612 0.753704
Spine1  3.18663 4.46263 1.03741
RightShoulder  0.0555773 2.48079 6.11303
RightArm  -33.3133 6.1022 56.5926
RightForeArm  18.8135 52.1593 13.1546
RightHand  1.31141 -15.3609 -9.32769
LeftShoulder1  0.00568206 1.34491 -8.05194
LeftArm  -32.3881 22.8252 -71.5137
LeftForeArm  26.7153 -13.9378 -2.50405
LeftHand  0.1085 3.70581 2.97741
HEad  -6.11635 -30.9362 2.78654
RightUpLeg  -11.5524 -22.8894 1.16937
RightLeg  11.3284 12.1155 1.6176
RightFoot  2.74968 -0.005834 0.620471
RightToes  -37.762 -0.200856 -0.302134
73
root  -4.62188 34.2256 3.91368 2.90999 26.4519 1.45814
LeftUpLeg  -10.2538 13.7986 4.31558
LeftLeg  45.9577 8.39573 7.55519
LeftFoot  -0.639199 -0.000470747 -0.0844002
LeftToes  -14.6875 1.92152e-006 4.03786e-008
Spine  1.85894 2.25856 0.941583
Spine1  3.52309 4.83355 1.37976
RightShoulder  0.0603824 2.60349 6.10888
RightArm  -32.8669 6.26069 56.8432
RightForeArm  18.7539 51.7325 12.9498
RightHand  1.32374 -15.444 -9.36542
LeftShoulder1  0.00445008 1.50821 -8.02373
LeftArm  -31.2436 22.6317 -72.5141
LeftForeArm  26.4124 -14.4858 -2.60673
LeftHand  0.103246 3.7566 2.77242
HEad  -6.51837 -30.5225 2.5703
RightUpLeg  -10.6297 -22.9588 1.24446
RightLeg  10.914 13.0119 1.64061
RightFoot  2.3582 -0.00505771 0.575231
RightToes  -38.382 -0.204009 -0.304442
74
root  -4.59615 34.2395 4.28393 3.01753 25.3545 1.44481
LeftUpLeg  -11.5741 14.9813 3.26903
LeftLeg  43.1457 7.24642 5.92283
LeftFoot  -2.01278 -0.0051203 -0.291486
LeftToes  -17.5648 1.92152e-006 4.03786e-008
Spine  1.98455 2.4008 1.10839
Spine1  3.78479 5.1369 1.69587
RightShoulder  0.0636326 2.69065 5.9743
RightArm  -32.3061 6.55396 57.2697
RightForeArm  18.6682 51.3967 12.7914
RightHand  1.32545 -15.4696 -9.33709
LeftShoulder1  0.00342936 1.68227 -8.04667
LeftArm  -29.9913 22.2926 -73.2621
LeftForeArm  26.0883 -14.9672 -2.69739
LeftHand  0.0902113 3.76876 2.36712
HEad  -7.02634 -29.856 2.37204
RightUpLeg  -9.99349 -22.959 1.39546
RightLeg  10.5059 13.9594 1.65805
RightFoot  2.02467 -0.00481069 0.533682
RightToes  -38.2707 -0.204818 -0.305147
75
root  -4.56059 34.2431 4.62958 3.18971 24.1079 1.51615
LeftUpLeg  -12.7055 15.3373 2.09183
LeftLeg  38.8759 7.04906 4.94154
LeftFoot  -3.84307 -0.0184352 -0.549493
LeftToes  -17.4771 1.92152e-006 4.03786e-008
Spine  2.11298 2.5334 1.2076
Spine1  4.04825 5.42057 1.8852
RightShoulder  0.0668144 2.76012 5.82484
RightArm  -31.4359 6.86584 57.7604
RightForeArm  19.0238 51.3602 12.7746
RightHand  1.32564 -15.4214 -9.32
LeftShoulder1  0.00260987 1.73997 -8.10138
LeftArm  -28.8518 21.9887 -73.7212
LeftForeArm  25.9783 -15.994 -2.89202
LeftHand  0.0826697 3.7493 2.15142
HEad  -7.56636 -28.9477 2.12915
RightUpLeg  -9.50167 -22.6581 1.47324
RightLeg  10.2609 14.7248 1.68404
RightFoot  1.61435 -0.00242042 0.455528
RightToes  -37.2624 -0.196991 -0.299141
76
root  -4.52102 34.238 4.95457 3.27179 22.7321 1.58298
LeftUpLeg  -13.6363 15.1761 1.04443
LeftLeg  33.6015 8.01181 4.58162
LeftFoot  -4.01245 -0.0218917 -0.624951
LeftToes  -17.493 1.92152e-006 4.03786e-008
Spine  2.2806 2.67663 1.27331
Spine1  4.38389 5.73357 1.99968
RightShoulder  0.0712814 2.92854 5.6596
RightArm  -30.4232 7.14313 58.2345
RightForeArm  19.3374 51.3565 12.7731
RightHand  1.3274 -15.3721 -9.43817
LeftShoulder1  0.00198159 1.73486 -8.21237
LeftArm  -27.7466 21.5286 -73.8757
LeftForeArm  25.987 -16.9599 -3.07699
LeftHand  0.0781299 3.58382 2.12289
HEad  -8.12462 -27.8848 1.88086
RightUpLeg  -9.00593 -22.0097 1.5098
RightLeg  10.1178 15.2695 1.70683
RightFoot  1.24919 3.39135e-005 0.374225
RightToes  -35.9478 -0.186949 -0.291107
77
root  -4.47879 34.2312 5.27366 3.30189 21.2347 1.57926
LeftUpLeg  -14.4524 14.8423 0.271092
LeftLeg  27.659 9.85901 4.35149
LeftFoot  -2.83775 -0.0127892 -0.51634
LeftToes  -17.7645 1.92152e-006 4.03786e-008
Spine  2.45119 2.82112 1.31063
Spine1  4.72359 6.05129 2.05931
RightShoulder  0.0762314 3.22449 5.49974
RightArm  -29.5232 7.39582 58.7675
RightForeArm  19.4822 51.2516 12.7243
RightHand  1.31778 -15.3128 -9.40541
LeftShoulder1  0.00153448 1.73953 -8.26576
LeftArm  -26.55 20.9476 -73.859
LeftForeArm  26.1306 -17.8713 -3.25333
LeftHand  0.0748757 3.53159 2.21088
HEad  -8.38234 -26.7817 1.49591
RightUpLeg  -8.47397 -20.8713 1.60408
RightLeg  9.88725 15.4435 1.66376
RightFoot  1.02287 0.000534224 0.317481
RightToes  -34.0394 -0.172703 -0.279037
78
root  -4.43157 34.2191 5.59363 3.31381 19.7686 1.48179
LeftUpLeg  -15.4362 14.5731 -0.109397
LeftLeg  21.8394 10.8275 3.52294
LeftFoot  -1.43512 -0.00336644 -0.268797
LeftToes  -17.7002 1.92152e-006 4.03786e-008
Spine  2.60193 2.91956 1.33242
Spine1  5.02443 6.27456 2.09253
RightShoulder  0.0804186 3.49836 5.41137
RightArm  -28.6429 7.68536 59.3588
RightForeArm  19.5153 51.166 12.6846
RightHand  1.30616 -15.3389 -9.30297
LeftShoulder1  0.00125852 1.73023 -8.26451
LeftArm  -25.649 20.2826 -73.7176
LeftForeArm  26.3939 -18.6181 -3.39918
LeftHand  0.072825 3.33576 2.12623
HEad  -8.4331 -25.6229 1.09796
RightUpLeg  -7.91254 -19.8493 1.72416
RightLeg  9.60518 15.7205 1.61569
RightFoot  0.798916 0.0013165 0.261401
RightToes  -33.4504 -0.168388 -0.275217
79
root  -4.39163 34.2218 5.89845 3.44415 18.6265 1.44515
LeftUpLeg  -16.9361 13.9103 -0.243439
LeftLeg  17.077 9.61965 2.27695
LeftFoot  0.659173 -0.000785598 0.13656
LeftToes  -15.8533 1.92152e-006 4.03786e-008
Spine  2.71908 2.92992 1.31388
Spine1  5.25462 6.31641 2.05367
RightShoulder  0.0825639 3.52847 5.26007
RightArm  -27.5514 8.02572 60.1413
RightForeArm  19.5197 51.1146 12.6609
RightHand  1.31157 -15.3326 -9.34683
LeftShoulder1  0.00114368 1.7012 -8.35754
LeftArm  -24.5202 19.3267 -73.3064
LeftForeArm  26.3853 -18.8807 -3.45081
LeftHand  0.0720939 3.33605 2.10098
HEad  -8.48384 -24.6138 0.713528
RightUpLeg  -7.46573 -19.1064 1.78578
RightLeg  9.35366 16.055 1.57901
RightFoot  0.628429 0.000866189 0.219356
RightToes  -32.877 -0.164226 -0.271456
80
root  -4.33463 34.1979 6.1942 3.45952 17.6105 0.999917
LeftUpLeg  -18.5731 12.9828 0.25892
LeftLeg  13.236 7.57489 1.26953
LeftFoot  3.38882 -0.0142759 0.482582
LeftToes  -18.2019 1.92152e-006 4.03786e-008
Spine  2.82205 2.93835 1.37692
Spine1  5.46789 6.34873 2.17058
RightShoulder  0.0846424 3.57264 5.1837
RightArm  -26.6014 8.23249 60.7266
RightForeArm  19.676 51.0806 12.6453
RightHand  1.28986 -15.3361 -9.18457
LeftShoulder1  0.00117993 1.60811 -8.34456
LeftArm  -23.6053 18.4344 -72.9909
LeftForeArm  26.4615 -19.6356 -3.60017
LeftHand  0.0718164 3.25272 2.14128
HEad  -8.49835 -23.7649 0.450806
RightUpLeg  -7.15001 -18.709 2.20725
RightLeg  9.38223 16.5692 1.63651
RightFoot  0.376854 0.000741083 0.151921
RightToes  -31.9431 -0.157527 -0.265241
81
root  -4.26907 34.1647 6.48208 3.26685 16.6544 0.39908
LeftUpLeg  -20.391 12.4353 1.06558
LeftLeg  11.0635 5.16574 0.667025
LeftFoot  4.35786 -0.0143008 0.422274
LeftToes  -20.3534 1.92152e-006 4.03786e-008
Spine  2.98871 2.99237 1.47625
Spine1  5.80721 6.48244 2.33799
RightShoulder  0.0899566 3.76993 5.07557
RightArm  -25.8928 8.21388 61.0541
RightForeArm  19.6253 51.0527 12.6324
RightHand  1.26467 -15.3249 -9.00573
LeftShoulder1  0.00135724 1.38041 -8.28602
LeftArm  -23.0973 17.4527 -72.7785
LeftForeArm  26.7782 -20.4117 -3.75518
LeftHand  0.0716022 3.14852 2.21511
HEad  -8.53266 -22.995 0.296216
RightUpLeg  -6.80201 -18.3511 2.71014
RightLeg  9.72907 17.0408 1.78445
RightFoot  0.0876532 0.000235633 0.0689446
RightToes  -30.923 -0.150328 -0.25833
82
root  -4.18193 34.1371 6.77758 3.11253 15.7766 0.0313858
LeftUpLeg  -22.2478 12.0425 1.72684
LeftLeg  10.1151 3.37308 0.378944
LeftFoot  4.7887 -0.0129312 0.309248
LeftToes  -20.2055 1.92152e-006 4.03786e-008
Spine  3.15291 3.04038 1.47871
Spine1  6.12771 6.60888 2.31407
RightShoulder  0.0947771 3.97319 5.01637
RightArm  -25.196 8.07631 61.3165
RightForeArm  19.4592 51.139 12.6721
RightHand  1.27276 -15.31 -9.0747
LeftShoulder1  0.00166559 1.19247 -8.20247
LeftArm  -22.8221 16.3676 -72.576
LeftForeArm  26.9365 -20.7785 -3.82899
LeftHand  0.0712622 3.03397 2.28924
HEad  -8.70806 -22.3129 0.43206
RightUpLeg  -6.41993 -17.9522 2.92412
RightLeg  10.1719 17.3876 1.95351
RightFoot  -0.303476 -0.0011336 -0.0506043
RightToes  -29.8028 -0.142566 -0.250593
83
root  -4.0715 34.1164 7.09801 2.9473 14.9257 -0.297446
LeftUpLeg  -23.9944 12.0216 2.30108
LeftLeg  10.0545 3.18161 0.353993
LeftFoot  5.52571 -0.0159981 0.338124
LeftToes  -19.9118 1.92152e-006 4.03786e-008
Spine  3.29077 3.07444 1.45501
Spine1  6.39378 6.70095 2.25028
RightShoulder  0.0969185 4.05918 5.03456
RightArm  -24.4369 7.99085 61.5907
RightForeArm  19.4974 51.1917 12.6965
RightHand  1.28958 -15.3068 -9.20094
LeftShoulder1  0.00209495 1.03801 -8.19991
LeftArm  -22.5021 15.4085 -72.3189
LeftForeArm  26.8333 -21.0484 -3.88363
LeftHand  0.0715621 2.95404 2.47135
HEad  -8.78462 -21.666 0.588211
RightUpLeg  -5.95482 -17.621 3.03023
RightLeg  10.6333 17.7988 2.14111
RightFoot  -0.709496 -0.00345954 -0.181376
RightToes  -28.4813 -0.133604 -0.241273
84
root  -3.94104 34.1001 7.44633 2.82388 13.9472 -0.701956
LeftUpLeg  -25.3547 12.3305 2.91257
LeftLeg  10.1708 4.21049 0.477295
LeftFoot  6.10129 -0.025079 0.484017
LeftToes  -19.3669 1.92152e-006 4.03786e-008
Spine  3.35736 3.13341 1.43716
Spine1  6.52302 6.83139 2.21708
RightShoulder  0.0981192 4.09065 5.08226
RightArm  -23.7418 7.80628 61.8766
RightForeArm  19.6926 51.297 12.7456
RightHand  1.25266 -15.2555 -8.95965
LeftShoulder1  0.00263528 1.0006 -8.22362
LeftArm  -22.0141 14.6312 -72.0709
LeftForeArm  26.6605 -21.2469 -3.92397
LeftHand  0.0700498 2.90641 2.45436
HEad  -8.62508 -20.953 0.618919
RightUpLeg  -5.3996 -16.9426 3.19736
RightLeg  10.8621 17.9373 2.22869
RightFoot  -1.05185 -0.00616296 -0.294033
RightToes  -27.488 -0.127011 -0.234133
